<svg xmlns="http://www.w3.org/2000/svg" viewBox="0 0 180 180" fill="none">
  <defs>
    <linearGradient id="bgGradient" x1="0%" y1="0%" x2="100%" y2="100%">
      <stop offset="0%" style="stop-color:#3B82F6;stop-opacity:1" />
      <stop offset="100%" style="stop-color:#8B5CF6;stop-opacity:1" />
    </linearGradient>
    <linearGradient id="chartGradient" x1="0%" y1="0%" x2="0%" y2="100%">
      <stop offset="0%" style="stop-color:#10B981;stop-opacity:0.3" />
      <stop offset="100%" style="stop-color:#10B981;stop-opacity:0" />
    </linearGradient>
  </defs>
  <circle cx="90" cy="90" r="85" fill="url(#bgGradient)"/>
  <path d="M 30 150 L 50 130 L 70 110 L 90 90 L 110 70 L 130 50 L 150 30"
        stroke="#10B981"
        stroke-width="6"
        fill="none"
        stroke-linecap="round"
        stroke-linejoin="round"/>
  <path d="M 30 150 L 50 130 L 70 110 L 90 90 L 110 70 L 130 50 L 150 30 L 150 150 L 30 150 Z"
        fill="url(#chartGradient)"/>
  <circle cx="50" cy="130" r="4" fill="#10B981"/>
  <circle cx="70" cy="110" r="4" fill="#10B981"/>
  <circle cx="90" cy="90" r="4" fill="#10B981"/>
  <circle cx="110" cy="70" r="4" fill="#10B981"/>
  <circle cx="130" cy="50" r="4" fill="#10B981"/>
  <circle cx="150" cy="30" r="4" fill="#10B981"/>
  <path d="M 135 75 L 150 60 L 165 75 M 150 60 L 150 30"
        stroke="#FFFFFF"
        stroke-width="4"
        fill="none"
        stroke-linecap="round"
        stroke-linejoin="round"/>
</svg>
